<svg xmlns="http://www.w3.org/2000/svg" width="27.818" height="27.869" viewBox="0 0 27.818 27.869">
  <g id="Group_5905" data-name="Group 5905" transform="translate(-20 -212.369)">
    <path id="Path_23155" data-name="Path 23155" d="M28.954,257.477v-2.318A1.159,1.159,0,0,0,27.8,254H23.159A1.159,1.159,0,0,0,22,255.159v2.318" transform="translate(-0.841 -17.239)" fill="none" stroke="#fff" stroke-miterlimit="10" stroke-width="1.5"/>
    <path id="Path_23156" data-name="Path 23156" d="M60.954,257.477v-2.318A1.159,1.159,0,0,0,59.8,254H55.159A1.159,1.159,0,0,0,54,255.159v2.318" transform="translate(-14.296 -17.239)" fill="none" stroke="#fff" stroke-miterlimit="10" stroke-width="1.5"/>
    <path id="Path_23157" data-name="Path 23157" d="M44.954,257.477v-2.318A1.159,1.159,0,0,0,43.8,254H39.159A1.159,1.159,0,0,0,38,255.159v2.318" transform="translate(-7.568 -17.239)" fill="none" stroke="#fff" stroke-miterlimit="10" stroke-width="1.5"/>
    <path id="Path_23158" data-name="Path 23158" d="M36.954,251.477v-2.318A1.159,1.159,0,0,0,35.8,248H31.159A1.159,1.159,0,0,0,30,249.159v2.318" transform="translate(-4.205 -14.716)" fill="none" stroke="#fff" stroke-miterlimit="10" stroke-width="1.5"/>
    <path id="Path_23159" data-name="Path 23159" d="M23.477,251.477v-2.318A1.159,1.159,0,0,0,22.318,248H20" transform="translate(0 -14.716)" fill="none" stroke="#fff" stroke-miterlimit="10" stroke-width="1.5"/>
    <path id="Path_23160" data-name="Path 23160" d="M52.954,251.477v-2.318A1.159,1.159,0,0,0,51.8,248H47.159A1.159,1.159,0,0,0,46,249.159v2.318" transform="translate(-10.932 -14.716)" fill="none" stroke="#fff" stroke-miterlimit="10" stroke-width="1.5"/>
    <path id="Path_23161" data-name="Path 23161" d="M65.477,248H63.159A1.159,1.159,0,0,0,62,249.159v2.318" transform="translate(-17.659 -14.716)" fill="none" stroke="#fff" stroke-miterlimit="10" stroke-width="1.5"/>
    <rect id="Rectangle_6736" data-name="Rectangle 6736" width="26" height="16" transform="translate(20.909 213.119)" fill="none" stroke="#fff" stroke-miterlimit="10" stroke-width="1.5"/>
    <line id="Line_439" data-name="Line 439" x2="1" transform="translate(23.909 239.119)" fill="none" stroke="#fff" stroke-miterlimit="10" stroke-width="1.5"/>
    <line id="Line_440" data-name="Line 440" x2="2" transform="translate(32.909 239.119)" fill="none" stroke="#fff" stroke-miterlimit="10" stroke-width="1.5"/>
    <line id="Line_441" data-name="Line 441" x2="1" transform="translate(42.909 239.119)" fill="none" stroke="#fff" stroke-miterlimit="10" stroke-width="1.5"/>
    <line id="Line_442" data-name="Line 442" x2="1" transform="translate(37.909 235.119)" fill="none" stroke="#fff" stroke-miterlimit="10" stroke-width="1.5"/>
    <line id="Line_443" data-name="Line 443" x2="1" transform="translate(28.909 235.119)" fill="none" stroke="#fff" stroke-miterlimit="10" stroke-width="1.5"/>
  </g>
</svg>
