<svg xmlns="http://www.w3.org/2000/svg" width="31.939" height="27.887" viewBox="0 0 31.939 27.887">
  <g id="Group_5901" data-name="Group 5901" transform="translate(-83 -93)">
    <path id="Path_23148" data-name="Path 23148" d="M121.835,168.109H98.953a.953.953,0,0,1-.953-.953v-11.2a.953.953,0,1,1,1.907,0V166.2h20.975V155.953a.953.953,0,1,1,1.907,0v11.2A.953.953,0,0,1,121.835,168.109Z" transform="translate(-11.425 -47.222)" fill="#fff"/>
    <path id="Path_23149" data-name="Path 23149" d="M83.954,107.778a.953.953,0,0,1-.619-1.678L98.41,93.228a.953.953,0,0,1,1.241,0L114.607,106.1a.953.953,0,1,1-1.244,1.445L99.026,95.209l-14.454,12.34A.95.95,0,0,1,83.954,107.778Z" transform="translate(0 0)" fill="#fff"/>
  </g>
</svg>
