<svg xmlns="http://www.w3.org/2000/svg" width="29.712" height="25.542" viewBox="0 0 29.712 25.542">
  <g id="Group_5906" data-name="Group 5906" transform="translate(-355.999 -432.047)">
    <path id="Path_23162" data-name="Path 23162" d="M514.249,432.2H497.832a3.031,3.031,0,0,0-3.028,3.028v.824h1.275v-.824a1.755,1.755,0,0,1,1.753-1.753h16.417A1.755,1.755,0,0,1,516,435.225v8.815a1.755,1.755,0,0,1-1.753,1.753h-.985v1.275h.985a3.031,3.031,0,0,0,3.028-3.028v-8.815A3.031,3.031,0,0,0,514.249,432.2Z" transform="translate(-131.716)" fill="#fff" stroke="#fff" stroke-linejoin="bevel" stroke-width="0.3"/>
    <path id="Path_23163" data-name="Path 23163" d="M362.76,543.992a.879.879,0,0,1-.366-.081.863.863,0,0,1-.509-.789l-.014-3.446h-2.694a3.031,3.031,0,0,1-3.028-3.028V526.337a3.031,3.031,0,0,1,3.028-3.028h18.636a3.031,3.031,0,0,1,3.028,3.028v10.312a3.031,3.031,0,0,1-3.028,3.028H368.2l-4.877,4.108A.857.857,0,0,1,362.76,543.992Zm-3.584-19.408a1.755,1.755,0,0,0-1.753,1.753v10.312a1.755,1.755,0,0,0,1.753,1.753h3.964l.015,3.854,4.575-3.854h10.081a1.755,1.755,0,0,0,1.753-1.753V526.337a1.755,1.755,0,0,0-1.753-1.753Z" transform="translate(0 -86.552)" fill="#fff" stroke="#fff" stroke-linejoin="bevel" stroke-width="0.3"/>
    <path id="Path_23164" data-name="Path 23164" d="M466.441,621.8h-13.7a.744.744,0,1,0,0,1.487h13.7a.744.744,0,0,0,0-1.487Z" transform="translate(-91.047 -180.114)" fill="#fff" stroke="#fff" stroke-linejoin="bevel" stroke-width="0.3"/>
    <path id="Path_23165" data-name="Path 23165" d="M465.025,716.134H452.737a.744.744,0,1,0,0,1.487h12.288a.744.744,0,1,0,0-1.487Z" transform="translate(-91.047 -269.727)" fill="#fff" stroke="#fff" stroke-linejoin="bevel" stroke-width="0.3"/>
  </g>
</svg>
