<svg xmlns="http://www.w3.org/2000/svg" width="32.867" height="29.175" viewBox="0 0 32.867 29.175">
  <g id="Group_6289" data-name="Group 6289" transform="translate(-1019.31 -940.795)">
    <g id="Group_6289-2" data-name="Group 6289" transform="translate(1019.31 943.227)">
      <path id="Path_23967" data-name="Path 23967" d="M1050.718,969.205h-29.949a1.459,1.459,0,0,1-1.459-1.459V943.921a1.459,1.459,0,0,1,1.459-1.459h29.949a1.458,1.458,0,0,1,1.459,1.459v23.825a1.458,1.458,0,0,1-1.459,1.459Zm-28.491-2.918h27.032V945.38h-27.032v20.908Z" transform="translate(-1019.31 -942.462)" fill="#fff"/>
    </g>
    <g id="Group_6290" data-name="Group 6290" transform="translate(1043.666 940.795)">
      <path id="Path_23968" data-name="Path 23968" d="M1037.465,948.575a1.458,1.458,0,0,1-1.459-1.459v-4.862a1.459,1.459,0,1,1,2.918,0v4.862a1.458,1.458,0,0,1-1.459,1.459Z" transform="translate(-1036.006 -940.795)" fill="#fff"/>
    </g>
    <g id="Group_6291" data-name="Group 6291" transform="translate(1025.067 940.795)">
      <path id="Path_23969" data-name="Path 23969" d="M1024.715,948.575a1.458,1.458,0,0,1-1.459-1.459v-4.862a1.459,1.459,0,1,1,2.918,0v4.862a1.458,1.458,0,0,1-1.459,1.459Z" transform="translate(-1023.256 -940.795)" fill="#fff"/>
    </g>
    <g id="Group_6292" data-name="Group 6292" transform="translate(1020.245 951.837)">
      <path id="Path_23970" data-name="Path 23970" d="M1050.341,949.823H1020.68a.729.729,0,0,1,0-1.459h29.661a.729.729,0,0,1,0,1.459Z" transform="translate(-1019.951 -948.364)" fill="#fff"/>
    </g>
    <path id="Path_23971" data-name="Path 23971" d="M1025.878,951.395h-2.829v2.829h2.829v-2.829Z" transform="translate(1.715 4.863)" fill="#fff"/>
    <path id="Path_23972" data-name="Path 23972" d="M1029.236,951.395h-2.829v2.829h2.829v-2.829Z" transform="translate(3.256 4.863)" fill="#fff"/>
    <path id="Path_23973" data-name="Path 23973" d="M1032.6,951.395h-2.832v2.829h2.832v-2.829Z" transform="translate(4.796 4.863)" fill="#fff"/>
    <path id="Path_23974" data-name="Path 23974" d="M1035.953,951.395h-2.832v2.829h2.832v-2.829Z" transform="translate(6.337 4.863)" fill="#fff"/>
    <path id="Path_23975" data-name="Path 23975" d="M1039.308,951.395h-2.828v2.829h2.828v-2.829Z" transform="translate(7.878 4.863)" fill="#fff"/>
    <path id="Path_23976" data-name="Path 23976" d="M1025.878,954.511h-2.829v2.829h2.829v-2.829Z" transform="translate(1.715 6.293)" fill="#fff"/>
    <path id="Path_23977" data-name="Path 23977" d="M1029.236,954.511h-2.829v2.829h2.829v-2.829Z" transform="translate(3.256 6.293)" fill="#fff"/>
    <path id="Path_23978" data-name="Path 23978" d="M1032.6,954.511h-2.832v2.829h2.832v-2.829Z" transform="translate(4.796 6.293)" fill="#fff"/>
    <path id="Path_23979" data-name="Path 23979" d="M1035.953,954.511h-2.832v2.829h2.832v-2.829Z" transform="translate(6.337 6.293)" fill="#fff"/>
    <path id="Path_23980" data-name="Path 23980" d="M1039.308,954.511h-2.828v2.829h2.828v-2.829Z" transform="translate(7.878 6.293)" fill="#fff"/>
  </g>
</svg>
