<svg xmlns="http://www.w3.org/2000/svg" width="35.553" height="25.411" viewBox="0 0 35.553 25.411">
  <g id="Group_6308" data-name="Group 6308" transform="translate(-1007.694 -11192.593)">
    <path id="Path_23154" data-name="Path 23154" d="M405.445,421.9H392.961a.317.317,0,0,0-.317.317v6.492a.317.317,0,0,0,.317.317h12.484a.317.317,0,0,0,.317-.317v-6.492A.317.317,0,0,0,405.445,421.9Zm-.317,6.492H393.277v-5.859h11.851Z" transform="translate(630.25 10784.436)" fill="#fff" stroke="#fff" stroke-width="0.5"/>
    <path id="Path_23153" data-name="Path 23153" d="M380.445,386.362l-4.332-6.913a.316.316,0,0,0-.269-.149H350.089a.316.316,0,0,0-.268.149l-4.332,6.913a.316.316,0,0,0-.048.168v3.908a.316.316,0,0,0,.093.224,3.363,3.363,0,0,0,4.258.414v12.818a.317.317,0,0,0,.317.317h25.718a.316.316,0,0,0,.317-.317V391.076a3.342,3.342,0,0,0,1.876.573h0a3.347,3.347,0,0,0,2.381-.987.316.316,0,0,0,.093-.224V386.53A.318.318,0,0,0,380.445,386.362Zm-8.134-6.429,3.024,6.28h-3.474l-2.139-6.28Zm-3.259,0,2.139,6.28h-3.663l-1.159-6.28Zm2.182,6.913v3.523a2.717,2.717,0,0,1-1.759.645h-.08a2.717,2.717,0,0,1-1.819-.7v-3.47Zm-7.98-6.913h2.472l1.159,6.28h-3.631Zm3.688,6.913v3.505a2.715,2.715,0,0,1-1.779.663h-.08a2.717,2.717,0,0,1-1.8-.681v-3.488Zm-4.322-6.913v6.28H359.05l1.159-6.28Zm.03,6.913v3.488a2.718,2.718,0,0,1-1.8.681h-.08a2.716,2.716,0,0,1-1.779-.663v-3.505Zm-3.086-6.913-1.159,6.28h-3.663l2.139-6.28Zm-1.206,6.913v3.47a2.716,2.716,0,0,1-1.819.7h-.08a2.714,2.714,0,0,1-1.759-.645v-3.523Zm-2.146-6.913-2.139,6.28H350.6l3.023-6.28Zm-6.438,10.348a2.727,2.727,0,0,1-3.7.021v-3.456h3.7Zm.122-4.068H346.33l3.935-6.28h2.655Zm.511.633h3.659V390.3a2.721,2.721,0,0,1-3.659.019Zm8.144,16.731h-5.492V393.425h5.492Zm16.957,0H359.185v-10.47a.317.317,0,0,0-.317-.317h-6.126a.317.317,0,0,0-.317.317v10.47h-2V391.123a3.36,3.36,0,0,0,3.918-.223,3.347,3.347,0,0,0,2.116.748h.08a3.347,3.347,0,0,0,2.116-.748,3.347,3.347,0,0,0,2.116.748h.08a3.348,3.348,0,0,0,2.116-.748,3.347,3.347,0,0,0,2.116.748h.08a3.346,3.346,0,0,0,2.116-.748,3.348,3.348,0,0,0,2.116.748h.08a3.348,3.348,0,0,0,2.116-.748,3.359,3.359,0,0,0,3.918.223Zm.017-13.26a2.72,2.72,0,0,1-3.659-.018v-3.452h3.659Zm.511-4.1-3.023-6.28h2.655l3.935,6.28Zm3.822,4.089a2.727,2.727,0,0,1-3.7-.021v-3.434h3.7Z" transform="translate(662.503 10813.543)" fill="#fff" stroke="#fff" stroke-width="0.5"/>
  </g>
</svg>
