<svg xmlns="http://www.w3.org/2000/svg" width="31.485" height="36.213" viewBox="0 0 31.485 36.213">
  <g id="Group_5903" data-name="Group 5903" transform="translate(-44.25 -41.493)">
    <g id="Group_5902" data-name="Group 5902" transform="translate(45 42.956)">
      <path id="Path_23150" data-name="Path 23150" d="M45,61.963a14.993,14.993,0,1,0,29.985,0A15.072,15.072,0,0,0,61.571,46.657v-3.7l-7.9,5.68,7.9,5.511V51.028a11.048,11.048,0,1,1-9.822,3.58" transform="translate(-45 -42.956)" fill="none" stroke="#fff" stroke-miterlimit="10" stroke-width="1.5"/>
    </g>
    <path id="Path_23151" data-name="Path 23151" d="M57,65.411a2.367,2.367,0,0,1,2.367-2.367h0A1.968,1.968,0,0,1,60.743,66.4l-3.715,3.714a.017.017,0,0,0,.012.028h4.7" transform="translate(-2.531 -4.237)" fill="none" stroke="#fff" stroke-miterlimit="10" stroke-width="1.5"/>
    <path id="Path_23152" data-name="Path 23152" d="M70.524,67.778H65l3.945-4.734v7.1" transform="translate(-4.218 -4.237)" fill="none" stroke="#fff" stroke-linecap="round" stroke-linejoin="round" stroke-width="1.5"/>
  </g>
</svg>
