<svg xmlns="http://www.w3.org/2000/svg" width="32.471" height="33.36" viewBox="0 0 32.471 33.36">
  <g id="Group_6302" data-name="Group 6302" transform="translate(-1019.353 -1248.423)">
    <g id="Group_6295" data-name="Group 6295" transform="translate(1019.353 1272.012)">
      <g id="Group_6293" data-name="Group 6293">
        <path id="Path_23981" data-name="Path 23981" d="M1022.247,1274.5h-2.894c0-5.387,4.669-9.771,10.408-9.771v2.894c-4.142,0-7.514,3.084-7.514,6.878Z" transform="translate(-1019.353 -1264.728)" fill="#fff"/>
      </g>
      <g id="Group_6294" data-name="Group 6294" transform="translate(22.063)">
        <path id="Path_23982" data-name="Path 23982" d="M1045.011,1274.5h-2.893c0-3.793-3.371-6.878-7.514-6.878v-2.894c5.739,0,10.408,4.384,10.408,9.771Z" transform="translate(-1034.603 -1264.728)" fill="#fff"/>
      </g>
    </g>
    <g id="Group_6296" data-name="Group 6296" transform="translate(1026.142 1248.423)">
      <path id="Path_23983" data-name="Path 23983" d="M1033.49,1273.129h0c-4.4,0-7.827-4.259-9.178-11.387-.731-3.961.052-7.568,2.208-10.156a8.483,8.483,0,0,1,7.015-3.147,3.779,3.779,0,0,1,.417-.016,8.51,8.51,0,0,1,6.508,3.161c2.156,2.59,2.941,6.2,2.21,10.155-1.355,7.131-4.789,11.388-9.179,11.39Zm-.457-23.259a7.078,7.078,0,0,0-5.4,2.642c-1.874,2.253-2.545,5.435-1.9,8.964,1.212,6.386,4.112,10.2,7.756,10.207s6.542-3.821,7.756-10.211a10.711,10.711,0,0,0-1.9-8.961,7.044,7.044,0,0,0-5.813-2.627c-.229-.009-.366-.013-.5-.013Z" transform="translate(-1024.046 -1248.423)" fill="#fff"/>
    </g>
    <g id="Group_6297" data-name="Group 6297" transform="translate(1025.456 1249.029)">
      <path id="Path_23984" data-name="Path 23984" d="M1024.341,1257.048a.453.453,0,0,0-.158.027c-.721.21-.8,2.092-.255,3.995.5,1.761,1.176,2.741,1.671,2.741a.372.372,0,0,0,.113-.019c.5-.167.718-1.471.378-3.439-.3-1.833-1.074-3.306-1.749-3.306Z" transform="translate(-1023.571 -1245.176)" fill="#fff"/>
      <path id="Path_23985" data-name="Path 23985" d="M1037.633,1257.048c-.673,0-1.444,1.473-1.748,3.306-.335,1.968-.122,3.272.381,3.439a.339.339,0,0,0,.11.019c.495,0,1.166-.981,1.672-2.741.548-1.9.466-3.785-.254-3.995a.482.482,0,0,0-.161-.027Z" transform="translate(-1018.143 -1245.176)" fill="#fff"/>
      <path id="Path_23986" data-name="Path 23986" d="M1034.875,1248.842c-.565,0-1.144.022-1.727.069-.584-.048-1.169-.069-1.735-.069-.5,0-.988.019-1.45.055a4.443,4.443,0,0,0-3.113,1.852,2.54,2.54,0,0,0-1.061,1.441c-.056.249-.11.506-.169.765a5.144,5.144,0,0,0-.41,1.9,14.073,14.073,0,0,0-.519,3.927.387.387,0,0,0,.143.025c.234,0,.684-.175.845-1.451.1-.814.041-1.766.118-2.6a5.569,5.569,0,0,1,3.417-1.632h.048c.774.431,1.469.519,2.125.938a5.667,5.667,0,0,0,3.514,0c.658-.418,1.351-.506,2.128-.937h.045a5.569,5.569,0,0,1,3.419,1.632c.079.833.017,1.785.119,2.6.159,1.276.607,1.451.84,1.451a.416.416,0,0,0,.146-.025,13.971,13.971,0,0,0-.519-3.927,5.175,5.175,0,0,0-.41-1.9c-.058-.259-.114-.517-.168-.765a2.533,2.533,0,0,0-1.061-1.441,4.436,4.436,0,0,0-3.112-1.852c-.464-.036-.953-.055-1.456-.055Z" transform="translate(-1023.088 -1248.842)" fill="#fff"/>
    </g>
    <g id="Group_6301" data-name="Group 6301" transform="translate(1026.977 1259.12)">
      <g id="Group_6298" data-name="Group 6298">
        <path id="Path_23987" data-name="Path 23987" d="M1027.949,1261.3h-.009a3.5,3.5,0,0,1-2.493-1.075,2.976,2.976,0,0,1-.822-2.185l.023-.613a3.337,3.337,0,0,1,.072-.573l.088-.405.4-.13a10.439,10.439,0,0,1,6.626.071l.382.133.088.4a3.335,3.335,0,0,1,.078.564l.023.59a2.881,2.881,0,0,1-.78,2.07,3.644,3.644,0,0,1-2.517,1.145l-1.156.013Zm-1.859-3.735-.017.531a1.533,1.533,0,0,0,.432,1.141,2.038,2.038,0,0,0,1.447.616l1.113-.012a2.184,2.184,0,0,0,1.49-.674,1.436,1.436,0,0,0,.4-1.032l-.02-.513a8.937,8.937,0,0,0-4.845-.058Z" transform="translate(-1024.623 -1255.817)" fill="#fff"/>
      </g>
      <g id="Group_6299" data-name="Group 6299" transform="translate(9.441)">
        <path id="Path_23988" data-name="Path 23988" d="M1034.477,1261.3h-.009a3.481,3.481,0,0,1-2.488-1.073,2.975,2.975,0,0,1-.829-2.186l.023-.616a3.633,3.633,0,0,1,.074-.557l.078-.415.405-.133a10.439,10.439,0,0,1,6.626.071l.392.136.083.408a3.563,3.563,0,0,1,.074.548l.022.6a2.855,2.855,0,0,1-.774,2.059,3.638,3.638,0,0,1-2.52,1.147l-1.156.011Zm-1.862-3.735-.017.515a1.566,1.566,0,0,0,.436,1.157,2.042,2.042,0,0,0,1.447.616l1.114-.012a2.169,2.169,0,0,0,1.489-.674,1.418,1.418,0,0,0,.4-1.029l-.019-.518a9,9,0,0,0-4.847-.056Z" transform="translate(-1031.148 -1255.817)" fill="#fff"/>
      </g>
      <g id="Group_6300" data-name="Group 6300" transform="translate(7.398 1.693)">
        <path id="Path_23989" data-name="Path 23989" d="M1032.514,1258.434h-2.778v-1.447h2.778v1.447Z" transform="translate(-1029.736 -1256.987)" fill="#fff"/>
      </g>
    </g>
  </g>
</svg>
